<?xml version="1.0" encoding="UTF-8"?>
<svg width="380px" height="739px" viewBox="0 0 380 739" version="1.1" xmlns="http://www.w3.org/2000/svg" xmlns:xlink="http://www.w3.org/1999/xlink">
    <!-- Generator: Sketch 60 (88103) - https://sketch.com -->
    <title>编组</title>
    <desc>Created with Sketch.</desc>
    <g id="页面-1" stroke="none" stroke-width="1" fill="none" fill-rule="evenodd">
        <g id="画板" transform="translate(-434.000000, -370.000000)">
            <g id="编组" transform="translate(434.000000, 369.500000)">
                <rect id="矩形备份-15" fill="#F9F9FA" x="0" y="0.5" width="380" height="739"></rect>
                <line x1="190" y1="-188.5" x2="190" y2="190.5" id="直线-3" stroke="#D8D8D8" stroke-linecap="square" transform="translate(190.000000, 1.000000) rotate(-90.000000) translate(-190.000000, -1.000000) "></line>
                <line x1="190" y1="-106.5" x2="190" y2="272.5" id="直线-3备份" stroke="#D8D8D8" stroke-linecap="square" transform="translate(190.000000, 83.000000) rotate(-90.000000) translate(-190.000000, -83.000000) "></line>
                <line x1="190" y1="-24.5" x2="190" y2="354.5" id="直线-3备份-2" stroke="#D8D8D8" stroke-linecap="square" transform="translate(190.000000, 165.000000) rotate(-90.000000) translate(-190.000000, -165.000000) "></line>
                <line x1="190" y1="57.5" x2="190" y2="436.5" id="直线-3备份-3" stroke="#D8D8D8" stroke-linecap="square" transform="translate(190.000000, 247.000000) rotate(-90.000000) translate(-190.000000, -247.000000) "></line>
                <line x1="190" y1="139.5" x2="190" y2="518.5" id="直线-3备份-4" stroke="#D8D8D8" stroke-linecap="square" transform="translate(190.000000, 329.000000) rotate(-90.000000) translate(-190.000000, -329.000000) "></line>
                <line x1="190" y1="221.5" x2="190" y2="600.5" id="直线-3备份-5" stroke="#D8D8D8" stroke-linecap="square" transform="translate(190.000000, 411.000000) rotate(-90.000000) translate(-190.000000, -411.000000) "></line>
                <line x1="190" y1="303.5" x2="190" y2="682.5" id="直线-3备份-6" stroke="#D8D8D8" stroke-linecap="square" transform="translate(190.000000, 493.000000) rotate(-90.000000) translate(-190.000000, -493.000000) "></line>
                <line x1="190" y1="385.5" x2="190" y2="764.5" id="直线-3备份-7" stroke="#D8D8D8" stroke-linecap="square" transform="translate(190.000000, 575.000000) rotate(-90.000000) translate(-190.000000, -575.000000) "></line>
                <line x1="190" y1="467.5" x2="190" y2="846.5" id="直线-3备份-8" stroke="#D8D8D8" stroke-linecap="square" transform="translate(190.000000, 657.000000) rotate(-90.000000) translate(-190.000000, -657.000000) "></line>
                <line x1="190" y1="549.5" x2="190" y2="928.5" id="直线-3备份-9" stroke="#D8D8D8" stroke-linecap="square" transform="translate(190.000000, 739.000000) rotate(-90.000000) translate(-190.000000, -739.000000) "></line>
            </g>
        </g>
    </g>
</svg>